<svg width="232" height="180" viewBox="0 0 232 180" fill="none" xmlns="http://www.w3.org/2000/svg">
<g clip-path="url(#clip0_0_1)">
<path d="M124.286 81.8182C126.53 81.8182 128.472 82.6278 130.112 84.2472C131.752 85.8665 132.571 87.7841 132.571 90C132.571 92.2159 131.752 94.1335 130.112 95.7528C128.472 97.3722 126.53 98.1818 124.286 98.1818C122.042 98.1818 120.1 97.3722 118.46 95.7528C116.82 94.1335 116 92.2159 116 90C116 87.7841 116.82 85.8665 118.46 84.2472C120.1 82.6278 122.042 81.8182 124.286 81.8182ZM163.125 90L228.763 140.881C231.18 142.585 232.259 144.972 232 148.04C231.568 151.023 230.058 153.196 227.469 154.56L210.897 162.741C209.775 163.338 208.524 163.636 207.143 163.636C205.676 163.636 204.338 163.295 203.13 162.614L113.799 113.139L99.5581 121.577C98.8676 121.918 98.3497 122.131 98.0045 122.216C99.2128 126.392 99.6444 130.526 99.2991 134.616C98.695 141.179 96.2783 147.464 92.0491 153.473C87.82 159.482 82.1235 164.744 74.9598 169.261C63.567 176.42 51.6131 180 39.0982 180C27.3601 180 17.7798 176.676 10.3571 170.028C2.58929 162.869 -0.819941 154.048 0.129464 143.565C0.733631 137.088 3.1503 130.824 7.37947 124.773C11.6086 118.722 17.2619 113.437 24.3393 108.92C35.7321 101.761 47.7292 98.1818 60.3304 98.1818C67.4941 98.1818 74.0104 99.5028 79.8795 102.145C80.6563 101.037 81.6057 100.099 82.7277 99.3324L98.5223 90L82.7277 80.6676C81.6057 79.9006 80.6563 78.9631 79.8795 77.8551C74.0104 80.4972 67.4941 81.8182 60.3304 81.8182C47.7292 81.8182 35.7321 78.2386 24.3393 71.0795C17.2619 66.5625 11.6086 61.2784 7.37947 55.2273C3.1503 49.1761 0.733631 42.9119 0.129464 36.4347C-0.302084 31.4062 0.366815 26.5909 2.13616 21.9886C3.90551 17.3864 6.64583 13.4233 10.3571 10.0994C17.6935 3.36648 27.2738 0 39.0982 0C51.6131 0 63.567 3.57955 74.9598 10.7386C82.1235 15.1705 87.82 20.4119 92.0491 26.4631C96.2783 32.5142 98.695 38.821 99.2991 45.3835C99.6444 49.4744 99.2128 53.608 98.0045 57.7841C98.3497 57.8693 98.8676 58.0824 99.5581 58.4233L113.799 66.8608L203.13 17.3864C204.338 16.7045 205.676 16.3636 207.143 16.3636C208.524 16.3636 209.775 16.6619 210.897 17.2585L227.469 25.4403C230.058 26.804 231.568 28.9773 232 31.9602C232.259 35.0284 231.18 37.4148 228.763 39.1193L163.125 90ZM74.9598 56.7614C78.9301 53.1818 79.8363 48.5795 77.6786 42.9545C75.5208 37.3295 70.9464 32.3437 63.9554 27.9972C56.0149 22.9687 47.7292 20.4545 39.0982 20.4545C32.7113 20.4545 27.8348 21.9886 24.4688 25.0568C20.4985 28.6364 19.5923 33.2386 21.75 38.8636C23.9077 44.4886 28.4821 49.4744 35.4732 53.821C43.4137 58.8494 51.6994 61.3636 60.3304 61.3636C66.7173 61.3636 71.5938 59.8295 74.9598 56.7614ZM63.9554 152.003C70.9464 147.656 75.5208 142.67 77.6786 137.045C79.8363 131.42 78.9301 126.818 74.9598 123.239C71.5938 120.17 66.7173 118.636 60.3304 118.636C51.6994 118.636 43.4137 121.151 35.4732 126.179C28.4821 130.526 23.9077 135.511 21.75 141.136C19.5923 146.761 20.4985 151.364 24.4688 154.943C27.8348 158.011 32.7113 159.545 39.0982 159.545C47.7292 159.545 56.0149 157.031 63.9554 152.003ZM87 73.6364L99.4286 81.0511V79.6449C99.4286 76.5767 100.853 74.1903 103.701 72.4858L105.513 71.4631L95.2857 65.4545L91.9197 68.7784C91.6607 69.0341 91.2292 69.5028 90.625 70.1847C90.0208 70.8665 89.503 71.3778 89.0714 71.7187C88.8988 71.8892 88.7262 72.0384 88.5536 72.1662C88.381 72.294 88.2515 72.4006 88.1652 72.4858L87 73.6364ZM116 102.273L128.429 106.364L223.714 32.7273L207.143 24.5455L107.714 79.6449V94.0909L87 106.364L88.1652 107.386C88.3378 107.557 88.6399 107.812 89.0714 108.153C89.4167 108.494 89.8914 109.006 90.4956 109.687C91.0997 110.369 91.5744 110.881 91.9197 111.222L95.2857 114.545L116 102.273ZM207.143 155.455L223.714 147.273L156.393 95.1136L133.478 112.756C133.305 113.011 132.744 113.31 131.795 113.651L207.143 155.455Z" fill="white"/>
</g>
<defs>
<clipPath id="clip0_0_1">
<rect width="232" height="180" fill="white"/>
</clipPath>
</defs>
</svg>
