<svg width="16" height="16" viewBox="0 0 16 16" fill="none" xmlns="http://www.w3.org/2000/svg">
<path d="M3 9.5C3.39782 9.5 3.77936 9.34196 4.06066 9.06066C4.34196 8.77936 4.5 8.39782 4.5 8C4.5 7.60218 4.34196 7.22064 4.06066 6.93934C3.77936 6.65804 3.39782 6.5 3 6.5C2.60218 6.5 2.22064 6.65804 1.93934 6.93934C1.65804 7.22064 1.5 7.60218 1.5 8C1.5 8.39782 1.65804 8.77936 1.93934 9.06066C2.22064 9.34196 2.60218 9.5 3 9.5V9.5Z" fill="white"/>
<path d="M8 9.5C8.39782 9.5 8.77936 9.34196 9.06066 9.06066C9.34196 8.77936 9.5 8.39782 9.5 8C9.5 7.60218 9.34196 7.22064 9.06066 6.93934C8.77936 6.65804 8.39782 6.5 8 6.5C7.60218 6.5 7.22064 6.65804 6.93934 6.93934C6.65804 7.22064 6.5 7.60218 6.5 8C6.5 8.39782 6.65804 8.77936 6.93934 9.06066C7.22064 9.34196 7.60218 9.5 8 9.5V9.5Z" fill="white"/>
<path d="M13 9.5C13.3978 9.5 13.7794 9.34196 14.0607 9.06066C14.342 8.77936 14.5 8.39782 14.5 8C14.5 7.60218 14.342 7.22064 14.0607 6.93934C13.7794 6.65804 13.3978 6.5 13 6.5C12.6022 6.5 12.2206 6.65804 11.9393 6.93934C11.658 7.22064 11.5 7.60218 11.5 8C11.5 8.39782 11.658 8.77936 11.9393 9.06066C12.2206 9.34196 12.6022 9.5 13 9.5V9.5Z" fill="white"/>
</svg>
