<svg width="256" height="324" viewBox="0 0 256 324" fill="none" xmlns="http://www.w3.org/2000/svg">
<rect x="217" y="229" width="38.79" height="39.41" fill="#509EE3"/>
<rect x="217" y="174" width="38.79" height="39.41" fill="#509EE3"/>
<rect x="217" y="119" width="38.79" height="39.41" fill="#509EE3"/>
<rect x="217" y="63" width="38.79" height="39.41" fill="#509EE3"/>
<rect x="163" y="119" width="38.79" height="39.41" fill="#509EE3"/>
<rect x="108" y="174" width="38.79" height="39.41" fill="#509EE3"/>
<rect x="54" y="119" width="38.79" height="39.41" fill="#509EE3"/>
<rect y="63" width="38.79" height="39.41" fill="#509EE3"/>
<rect y="118" width="38.79" height="39.41" fill="#509EE3"/>
<rect y="174" width="38.79" height="39.41" fill="#509EE3"/>
<rect y="228" width="38.79" height="39.41" fill="#509EE3"/>
<rect x="108" y="228" width="38.79" height="39.41" fill="white"/>
<rect x="108" y="228" width="38.79" height="39.41" fill="white"/>
<rect x="108" y="228" width="38.79" height="39.41" fill="white"/>
<rect x="55" y="229" width="38.79" height="39.41" fill="white"/>
<rect x="55" y="229" width="38.79" height="39.41" fill="white"/>
<rect x="55" y="229" width="38.79" height="39.41" fill="white"/>
<rect x="54" y="174" width="38.79" height="39.41" fill="white"/>
<rect x="54" y="174" width="38.79" height="39.41" fill="white"/>
<rect x="54" y="174" width="38.79" height="39.41" fill="white"/>
<rect x="54" y="64" width="38.79" height="39.41" fill="white"/>
<rect x="54" y="64" width="38.79" height="39.41" fill="white"/>
<rect x="54" y="64" width="38.79" height="39.41" fill="white"/>
<rect x="108" y="118" width="38.79" height="39.41" fill="white"/>
<rect x="108" y="118" width="38.79" height="39.41" fill="white"/>
<rect x="108" y="118" width="38.79" height="39.41" fill="white"/>
<rect x="108" y="62" width="38.79" height="39.41" fill="white"/>
<rect x="108" y="62" width="38.79" height="39.41" fill="white"/>
<rect x="108" y="62" width="38.79" height="39.41" fill="white"/>
<rect x="108" width="38.79" height="39.41" fill="white"/>
<rect x="108" width="38.79" height="39.41" fill="white"/>
<rect x="108" width="38.79" height="39.41" fill="white"/>
<rect x="163" y="62" width="38.79" height="39.41" fill="white"/>
<rect x="163" y="62" width="38.79" height="39.41" fill="white"/>
<rect x="163" y="62" width="38.79" height="39.41" fill="white"/>
<rect x="163" y="174" width="38.79" height="39.41" fill="white"/>
<rect x="163" y="174" width="38.79" height="39.41" fill="white"/>
<rect x="163" y="174" width="38.79" height="39.41" fill="white"/>
<rect x="163" y="228" width="38.79" height="39.41" fill="white"/>
<rect x="163" y="228" width="38.79" height="39.41" fill="white"/>
<rect x="163" y="228" width="38.79" height="39.41" fill="white"/>
<rect x="109" y="284" width="38.79" height="39.41" fill="white"/>
<rect x="109" y="284" width="38.79" height="39.41" fill="white"/>
<rect x="109" y="284" width="38.79" height="39.41" fill="white"/>
</svg>
