<svg width="48" height="48" viewBox="0 0 48 48" fill="none" xmlns="http://www.w3.org/2000/svg">
<g clip-path="url(#clip0_0_1)">
<circle cx="24.5" cy="23.5" r="22.5" fill="#FF0000"/>
<path d="M21.6455 34L17.2656 18.5752H17.1338C17.1729 18.9756 17.2119 19.5176 17.251 20.2012C17.2998 20.8848 17.3438 21.6221 17.3828 22.4131C17.4219 23.2041 17.4414 23.9658 17.4414 24.6982V34H12.3145V12.584H20.0195L24.4873 27.7891H24.6045L28.9844 12.584H36.7041V34H31.3867V24.6104C31.3867 23.9365 31.3965 23.2139 31.416 22.4424C31.4453 21.6611 31.4746 20.9287 31.5039 20.2451C31.543 19.5518 31.5771 19.0049 31.6064 18.6045H31.4746L27.1533 34H21.6455Z" fill="white"/>
</g>
<defs>
<clipPath id="clip0_0_1">
<rect width="48" height="48" fill="white"/>
</clipPath>
</defs>
</svg>
