<svg width="171" height="48" viewBox="0 0 171 48" fill="none" xmlns="http://www.w3.org/2000/svg">
<rect width="171" height="48" fill="#FF0000"/>
<rect x="10" y="13" width="41" height="21" rx="5" fill="white"/>
<path d="M36 24L28.5 28.3301L28.5 19.6699L36 24Z" fill="#FF0000"/>
<path d="M73.0098 27.2012C73.0098 28.0475 72.7982 28.7702 72.375 29.3691C71.9583 29.9616 71.3724 30.4141 70.6172 30.7266C69.862 31.0391 68.9733 31.1953 67.9512 31.1953C67.4108 31.1953 66.8997 31.1693 66.418 31.1172C65.9362 31.0651 65.4935 30.9902 65.0898 30.8926C64.6862 30.7949 64.3314 30.6745 64.0254 30.5312V28.9395C64.5137 29.1413 65.1094 29.3301 65.8125 29.5059C66.5156 29.6751 67.2513 29.7598 68.0195 29.7598C68.7357 29.7598 69.3411 29.6654 69.8359 29.4766C70.3307 29.2812 70.7051 29.0046 70.959 28.6465C71.2194 28.2819 71.3496 27.8457 71.3496 27.3379C71.3496 26.8496 71.2422 26.4427 71.0273 26.1172C70.8125 25.7852 70.4544 25.4857 69.9531 25.2188C69.4583 24.9453 68.7812 24.6556 67.9219 24.3496C67.3164 24.1348 66.7826 23.9004 66.3203 23.6465C65.8581 23.3861 65.4707 23.0931 65.1582 22.7676C64.8457 22.4421 64.6081 22.0645 64.4453 21.6348C64.2891 21.2051 64.2109 20.7135 64.2109 20.1602C64.2109 19.3984 64.403 18.7474 64.7871 18.207C65.1777 17.6602 65.7148 17.2435 66.3984 16.957C67.0885 16.6641 67.8796 16.5176 68.7715 16.5176C69.5332 16.5176 70.2363 16.5892 70.8809 16.7324C71.5319 16.8757 72.1276 17.0677 72.668 17.3086L72.1504 18.7344C71.6361 18.5195 71.0892 18.3405 70.5098 18.1973C69.9368 18.054 69.3444 17.9824 68.7324 17.9824C68.1204 17.9824 67.6029 18.0736 67.1797 18.2559C66.763 18.4316 66.444 18.6823 66.2227 19.0078C66.0013 19.3333 65.8906 19.7207 65.8906 20.1699C65.8906 20.6712 65.9948 21.0879 66.2031 21.4199C66.418 21.752 66.7565 22.0482 67.2188 22.3086C67.6875 22.5625 68.306 22.8294 69.0742 23.1094C69.9141 23.4154 70.627 23.7409 71.2129 24.0859C71.7988 24.4245 72.2448 24.8411 72.5508 25.3359C72.8568 25.8242 73.0098 26.446 73.0098 27.2012ZM84.5234 20.2969V31H83.1953L82.9609 29.4961H82.873C82.6517 29.8672 82.3652 30.1797 82.0137 30.4336C81.6621 30.6875 81.265 30.8763 80.8223 31C80.3861 31.1302 79.9206 31.1953 79.4258 31.1953C78.5794 31.1953 77.8698 31.0586 77.2969 30.7852C76.724 30.5117 76.291 30.0885 75.998 29.5156C75.7116 28.9427 75.5684 28.207 75.5684 27.3086V20.2969H77.209V27.1914C77.209 28.0833 77.4108 28.7507 77.8145 29.1934C78.2181 29.6296 78.8333 29.8477 79.6602 29.8477C80.4544 29.8477 81.0859 29.6979 81.5547 29.3984C82.0299 29.099 82.3717 28.6595 82.5801 28.0801C82.7884 27.4941 82.8926 26.778 82.8926 25.9316V20.2969H84.5234ZM89.5723 15.8047V19.6035C89.5723 20.0397 89.5592 20.4629 89.5332 20.873C89.5137 21.2832 89.4974 21.6022 89.4844 21.8301H89.5723C89.8652 21.3483 90.2884 20.9414 90.8418 20.6094C91.3952 20.2773 92.1016 20.1113 92.9609 20.1113C94.3021 20.1113 95.3698 20.5768 96.1641 21.5078C96.9648 22.4323 97.3652 23.8092 97.3652 25.6387C97.3652 26.8431 97.1829 27.8587 96.8184 28.6855C96.4538 29.5124 95.9395 30.1374 95.2754 30.5605C94.6113 30.9837 93.8268 31.1953 92.9219 31.1953C92.0755 31.1953 91.3789 31.0391 90.832 30.7266C90.2917 30.4076 89.875 30.0202 89.582 29.5645H89.4551L89.123 31H87.9512V15.8047H89.5723ZM92.6973 21.4688C91.9225 21.4688 91.3073 21.6217 90.8516 21.9277C90.3958 22.2272 90.0671 22.6829 89.8652 23.2949C89.6699 23.9004 89.5723 24.6686 89.5723 25.5996V25.6875C89.5723 27.0352 89.7969 28.0671 90.2461 28.7832C90.6953 29.4928 91.5124 29.8477 92.6973 29.8477C93.6934 29.8477 94.4388 29.4831 94.9336 28.7539C95.4349 28.0247 95.6855 26.9831 95.6855 25.6289C95.6855 24.2487 95.4382 23.2103 94.9434 22.5137C94.4551 21.8171 93.7064 21.4688 92.6973 21.4688ZM107.121 28.0703C107.121 28.7539 106.949 29.3301 106.604 29.7988C106.265 30.2611 105.777 30.6094 105.139 30.8438C104.507 31.0781 103.752 31.1953 102.873 31.1953C102.124 31.1953 101.477 31.1367 100.93 31.0195C100.383 30.9023 99.9043 30.7363 99.4941 30.5215V29.0273C99.9303 29.2422 100.451 29.4375 101.057 29.6133C101.662 29.7891 102.281 29.877 102.912 29.877C103.837 29.877 104.507 29.7272 104.924 29.4277C105.34 29.1283 105.549 28.7214 105.549 28.207C105.549 27.9141 105.464 27.6569 105.295 27.4355C105.132 27.2077 104.855 26.9896 104.465 26.7812C104.074 26.5664 103.534 26.332 102.844 26.0781C102.16 25.8177 101.568 25.5605 101.066 25.3066C100.572 25.0462 100.188 24.7305 99.9141 24.3594C99.6471 23.9883 99.5137 23.5065 99.5137 22.9141C99.5137 22.0091 99.8783 21.3158 100.607 20.834C101.343 20.3457 102.307 20.1016 103.498 20.1016C104.143 20.1016 104.745 20.1667 105.305 20.2969C105.871 20.4206 106.398 20.5898 106.887 20.8047L106.34 22.1035C105.897 21.9147 105.425 21.7552 104.924 21.625C104.423 21.4948 103.911 21.4297 103.391 21.4297C102.642 21.4297 102.066 21.5534 101.662 21.8008C101.265 22.0482 101.066 22.3867 101.066 22.8164C101.066 23.1484 101.158 23.4219 101.34 23.6367C101.529 23.8516 101.828 24.0534 102.238 24.2422C102.648 24.431 103.189 24.6523 103.859 24.9062C104.53 25.1536 105.109 25.4108 105.598 25.6777C106.086 25.9382 106.46 26.2572 106.721 26.6348C106.988 27.0059 107.121 27.4844 107.121 28.0703ZM114.016 31.1953C113.052 31.1953 112.202 30.9967 111.467 30.5996C110.731 30.2025 110.158 29.597 109.748 28.7832C109.338 27.9694 109.133 26.944 109.133 25.707C109.133 24.4115 109.348 23.3535 109.777 22.5332C110.214 21.7064 110.812 21.0944 111.574 20.6973C112.336 20.3001 113.202 20.1016 114.172 20.1016C114.706 20.1016 115.22 20.1569 115.715 20.2676C116.216 20.3717 116.626 20.5052 116.945 20.668L116.457 22.0254C116.132 21.8952 115.754 21.778 115.324 21.6738C114.901 21.5697 114.504 21.5176 114.133 21.5176C113.391 21.5176 112.772 21.6771 112.277 21.9961C111.789 22.3151 111.421 22.7839 111.174 23.4023C110.933 24.0208 110.812 24.7826 110.812 25.6875C110.812 26.5534 110.93 27.2923 111.164 27.9043C111.405 28.5163 111.76 28.985 112.229 29.3105C112.704 29.6296 113.296 29.7891 114.006 29.7891C114.572 29.7891 115.083 29.7305 115.539 29.6133C115.995 29.4896 116.408 29.3464 116.779 29.1836V30.6289C116.421 30.8112 116.021 30.9512 115.578 31.0488C115.142 31.1465 114.621 31.1953 114.016 31.1953ZM124.182 20.1016C124.396 20.1016 124.621 20.1146 124.855 20.1406C125.09 20.1602 125.298 20.1895 125.48 20.2285L125.275 21.7324C125.1 21.6868 124.904 21.651 124.689 21.625C124.475 21.599 124.273 21.5859 124.084 21.5859C123.654 21.5859 123.247 21.6738 122.863 21.8496C122.486 22.0189 122.154 22.2663 121.867 22.5918C121.581 22.9108 121.356 23.2982 121.193 23.7539C121.031 24.2031 120.949 24.7044 120.949 25.2578V31H119.318V20.2969H120.666L120.842 22.2695H120.91C121.132 21.8724 121.398 21.5111 121.711 21.1855C122.023 20.8535 122.385 20.5898 122.795 20.3945C123.212 20.1992 123.674 20.1016 124.182 20.1016ZM129.123 20.2969V31H127.502V20.2969H129.123ZM128.332 16.293C128.599 16.293 128.827 16.3809 129.016 16.5566C129.211 16.7259 129.309 16.9928 129.309 17.3574C129.309 17.7155 129.211 17.9824 129.016 18.1582C128.827 18.334 128.599 18.4219 128.332 18.4219C128.052 18.4219 127.818 18.334 127.629 18.1582C127.447 17.9824 127.355 17.7155 127.355 17.3574C127.355 16.9928 127.447 16.7259 127.629 16.5566C127.818 16.3809 128.052 16.293 128.332 16.293ZM134.182 15.8047V19.6035C134.182 20.0397 134.169 20.4629 134.143 20.873C134.123 21.2832 134.107 21.6022 134.094 21.8301H134.182C134.475 21.3483 134.898 20.9414 135.451 20.6094C136.005 20.2773 136.711 20.1113 137.57 20.1113C138.911 20.1113 139.979 20.5768 140.773 21.5078C141.574 22.4323 141.975 23.8092 141.975 25.6387C141.975 26.8431 141.792 27.8587 141.428 28.6855C141.063 29.5124 140.549 30.1374 139.885 30.5605C139.221 30.9837 138.436 31.1953 137.531 31.1953C136.685 31.1953 135.988 31.0391 135.441 30.7266C134.901 30.4076 134.484 30.0202 134.191 29.5645H134.064L133.732 31H132.561V15.8047H134.182ZM137.307 21.4688C136.532 21.4688 135.917 21.6217 135.461 21.9277C135.005 22.2272 134.676 22.6829 134.475 23.2949C134.279 23.9004 134.182 24.6686 134.182 25.5996V25.6875C134.182 27.0352 134.406 28.0671 134.855 28.7832C135.305 29.4928 136.122 29.8477 137.307 29.8477C138.303 29.8477 139.048 29.4831 139.543 28.7539C140.044 28.0247 140.295 26.9831 140.295 25.6289C140.295 24.2487 140.048 23.2103 139.553 22.5137C139.064 21.8171 138.316 21.4688 137.307 21.4688ZM148.928 20.1016C149.839 20.1016 150.62 20.3034 151.271 20.707C151.923 21.1107 152.421 21.6771 152.766 22.4062C153.111 23.1289 153.283 23.9753 153.283 24.9453V25.9512H145.891C145.91 27.2077 146.223 28.1647 146.828 28.8223C147.434 29.4798 148.286 29.8086 149.387 29.8086C150.064 29.8086 150.663 29.7467 151.184 29.623C151.704 29.4993 152.245 29.3171 152.805 29.0762V30.502C152.264 30.7428 151.727 30.9186 151.193 31.0293C150.666 31.14 150.041 31.1953 149.318 31.1953C148.29 31.1953 147.391 30.987 146.623 30.5703C145.861 30.1471 145.269 29.5286 144.846 28.7148C144.423 27.901 144.211 26.9049 144.211 25.7266C144.211 24.5742 144.403 23.5781 144.787 22.7383C145.178 21.8919 145.725 21.2409 146.428 20.7852C147.137 20.3294 147.971 20.1016 148.928 20.1016ZM148.908 21.4297C148.042 21.4297 147.352 21.7129 146.838 22.2793C146.324 22.8457 146.018 23.6367 145.92 24.6523H151.584C151.577 24.0143 151.477 23.4544 151.281 22.9727C151.092 22.4844 150.803 22.1068 150.412 21.8398C150.021 21.5664 149.52 21.4297 148.908 21.4297Z" fill="white"/>
</svg>
