<?xml version="1.0" standalone="no"?>
<!DOCTYPE svg PUBLIC "-//W3C//DTD SVG 20010904//EN"
 "http://www.w3.org/TR/2001/REC-SVG-20010904/DTD/svg10.dtd">
<svg version="1.0" xmlns="http://www.w3.org/2000/svg"
 width="1009.000000pt" height="1280.000000pt" viewBox="0 0 1009.000000 1280.000000"
 preserveAspectRatio="xMidYMid meet">
<metadata>
Created by potrace 1.15, written by Peter Selinger 2001-2017
</metadata>
<g transform="translate(0.000000,1280.000000) scale(0.100000,-0.100000)"
fill="#000000" stroke="none">
<path d="M5265 12794 c-540 -39 -955 -136 -1411 -326 -68 -29 -123 -57 -121
-63 2 -5 37 -108 78 -227 41 -120 79 -218 85 -218 6 0 44 15 85 34 244 112
602 218 914 271 365 61 847 61 1232 0 1402 -223 2654 -1207 3282 -2581 82
-180 166 -397 216 -559 21 -66 41 -124 45 -129 6 -6 402 116 418 129 2 2 -16
61 -39 131 -189 586 -469 1130 -819 1594 -487 645 -1075 1135 -1775 1480 -494
243 -953 379 -1510 445 -123 14 -571 27 -680 19z"/>
<path d="M5195 11530 c-220 -18 -471 -65 -675 -127 -138 -41 -401 -144 -407
-159 -5 -15 133 -419 143 -417 5 1 50 20 99 41 411 178 929 262 1375 222 576
-52 1092 -258 1571 -627 139 -107 427 -392 537 -530 276 -350 478 -723 624
-1158 28 -82 52 -152 54 -153 2 -3 405 126 411 132 3 3 -85 261 -120 351 -388
987 -1126 1764 -2053 2160 -220 94 -513 182 -728 220 -262 45 -603 63 -831 45z"/>
<path d="M5200 10379 c-243 -22 -451 -73 -682 -167 -37 -15 -68 -31 -68 -37 0
-5 30 -99 66 -207 l65 -196 57 25 c342 153 858 198 1249 108 589 -135 1070
-560 1387 -1226 50 -106 128 -297 161 -396 3 -8 72 11 215 59 l212 70 -6 28
c-11 57 -100 289 -156 407 -231 486 -595 898 -1035 1171 -112 69 -339 179
-468 226 -310 115 -680 165 -997 135z"/>
<path d="M56 9698 c-21 -100 -46 -417 -52 -663 -34 -1279 370 -2579 1121
-3613 590 -812 1324 -1427 2230 -1868 1182 -575 2504 -738 3798 -468 1008 211
1956 688 2731 1376 l48 44 -2361 1248 -2361 1249 44 81 c24 45 80 152 125 239
70 134 87 158 109 162 161 33 242 76 341 180 78 83 124 165 151 271 87 339
-132 654 -454 654 -149 0 -269 -53 -387 -170 -123 -122 -179 -256 -179 -431 0
-98 15 -171 50 -240 l19 -35 -126 -242 -126 -241 -71 38 c-127 69 -4614 2441
-4630 2447 -10 4 -17 -2 -20 -18z m930 -1213 c230 -129 421 -238 425 -242 4
-5 12 -109 19 -233 34 -679 140 -1229 356 -1845 88 -249 250 -645 453 -1105
l51 -115 -145 148 c-927 946 -1453 2039 -1559 3242 -13 142 -25 385 -20 385 1
0 190 -106 420 -235z"/>
<path d="M1925 3208 c-446 -1431 -730 -2190 -1120 -2995 l-104 -213 2507 6
c1379 4 2508 8 2510 9 2 2 -42 93 -97 202 -319 638 -636 1402 -882 2128 l-34
100 -90 17 c-265 51 -546 123 -785 200 -412 133 -907 373 -1266 615 -108 73
-345 250 -429 322 -33 28 -63 51 -66 51 -3 0 -68 -199 -144 -442z m480 -361
c88 -61 163 -113 168 -117 9 -8 -53 -220 -123 -425 -273 -789 -680 -1519
-1068 -1915 -109 -111 -121 -121 -107 -85 9 22 90 223 181 447 302 749 501
1314 689 1963 69 239 75 256 88 248 7 -4 84 -56 172 -116z"/>
</g>
</svg>
