<?xml version="1.0" standalone="no"?>
<!DOCTYPE svg PUBLIC "-//W3C//DTD SVG 20010904//EN"
 "http://www.w3.org/TR/2001/REC-SVG-20010904/DTD/svg10.dtd">
<svg version="1.0" xmlns="http://www.w3.org/2000/svg"
 width="1280.000000pt" height="1180.000000pt" viewBox="0 0 1280.000000 1180.000000"
 preserveAspectRatio="xMidYMid meet">
<metadata>
Created by potrace 1.15, written by Peter Selinger 2001-2017
</metadata>
<g transform="translate(0.000000,1180.000000) scale(0.100000,-0.100000)"
fill="#ffffff" stroke="none">
<path d="M3775 11772 c-158 -72 -243 -131 -314 -217 -81 -98 -191 -309 -361
-690 -161 -362 -171 -379 -305 -535 -116 -134 -154 -186 -186 -255 -35 -73
-36 -105 -7 -273 18 -110 20 -136 10 -197 -46 -284 -71 -380 -147 -575 -84
-216 -275 -651 -310 -706 -18 -27 -109 -126 -202 -220 -240 -239 -241 -242
-207 -547 27 -243 22 -277 -90 -600 -150 -431 -247 -670 -376 -927 -44 -86
-80 -140 -144 -215 -47 -55 -98 -122 -113 -150 -31 -55 -33 -97 -23 -410 6
-163 10 -148 -150 -555 -51 -128 -111 -290 -135 -359 -79 -229 -160 -382 -433
-811 -86 -135 -162 -261 -169 -280 -21 -60 -16 -148 12 -208 28 -61 31 -109
11 -191 -8 -31 -17 -96 -21 -146 -9 -126 -40 -331 -82 -529 l-35 -169 17 -127
c35 -277 102 -502 217 -730 97 -193 181 -311 328 -463 200 -207 391 -343 685
-487 99 -49 243 -112 320 -142 l140 -53 3805 -3 3805 -2 95 27 c441 125 793
392 1077 818 133 199 137 209 342 891 202 673 224 746 706 2329 172 567 364
1197 425 1400 61 204 127 422 146 485 189 624 518 1754 623 2140 70 259 86
412 60 597 -33 235 -140 425 -323 570 -65 51 -282 173 -309 173 -4 0 -7 -54
-7 -119 0 -111 -3 -129 -39 -248 -22 -70 -63 -204 -91 -298 -28 -93 -73 -242
-100 -330 -27 -88 -65 -214 -85 -280 -20 -66 -351 -1159 -737 -2430 -385
-1270 -730 -2411 -768 -2535 -37 -124 -98 -324 -135 -445 -78 -258 -145 -480
-216 -712 -28 -93 -66 -217 -84 -278 -19 -60 -43 -149 -54 -197 -55 -236 -176
-402 -356 -488 -88 -42 -139 -56 -251 -70 -44 -6 -1560 -10 -3846 -10 -3729
-1 -3774 -1 -3850 19 -269 69 -507 250 -615 467 -42 85 -47 103 -51 178 -3 52
0 98 8 121 18 54 86 124 150 154 l55 26 3545 6 c3224 5 3556 7 3665 22 515 71
707 243 949 854 32 82 176 543 350 1124 739 2469 951 3176 1471 4914 163 545
323 1071 355 1170 110 335 151 546 152 780 0 195 -24 317 -93 462 -78 163
-234 308 -426 394 -85 38 -266 93 -358 108 -53 9 -804 11 -3060 9 -2879 -3
-2993 -4 -3075 -22 -156 -34 -503 -25 -705 20 -11 2 -47 -8 -80 -24z m3015
-1158 c1256 -141 2199 -962 2341 -2039 17 -133 6 -443 -21 -570 -127 -598
-525 -1082 -1155 -1405 -188 -96 -360 -162 -625 -241 -161 -48 -242 -93 -326
-181 -105 -109 -168 -224 -238 -434 -20 -62 -46 -120 -57 -130 -32 -29 -216
-35 -974 -32 -763 3 -727 1 -782 60 -47 51 -47 87 2 294 129 545 200 736 339
921 160 213 373 382 663 527 153 76 217 103 562 237 292 114 424 176 533 248
237 159 311 373 232 678 -48 187 -285 358 -547 393 -194 27 -432 -37 -656
-177 -166 -104 -396 -309 -526 -472 -34 -42 -77 -83 -99 -94 l-39 -20 -261 86
c-402 134 -1018 391 -1065 444 -33 38 -24 93 45 266 278 702 679 1178 1209
1436 268 131 539 199 900 225 94 7 410 -5 545 -20z m-386 -5348 c92 -28 156
-98 156 -172 0 -39 -78 -305 -200 -680 -33 -102 -92 -285 -131 -407 -79 -245
-94 -280 -145 -336 -67 -75 -13 -71 -873 -71 -821 0 -811 -1 -854 47 -33 37
-31 82 8 254 44 191 95 373 203 714 44 138 101 326 127 419 50 175 68 210 119
232 47 20 1522 20 1590 0z"/>
</g>
</svg>
