<svg width="48" height="48" viewBox="0 0 48 48" fill="none" xmlns="http://www.w3.org/2000/svg">
<path d="M47.3779 24.7776L25.7803 0.760151C24.8708 -0.253384 23.1238 -0.253384 22.2143 0.760151L0.616692 24.7776C0.305822 25.1224 0.101769 25.5503 0.029344 26.0091C-0.0430808 26.4679 0.0192428 26.9378 0.208738 27.3618C0.592695 28.2289 1.4518 28.7861 2.39969 28.7861H7.19916V45.5983C7.19916 46.2352 7.45199 46.8461 7.90202 47.2965C8.35206 47.747 8.96244 48 9.59889 48H16.7981C17.4345 48 18.0449 47.747 18.495 47.2965C18.945 46.8461 19.1978 46.2352 19.1978 45.5983V35.9913H28.7967V45.5983C28.7967 46.2352 29.0496 46.8461 29.4996 47.2965C29.9496 47.747 30.56 48 31.1965 48H38.3957C39.0321 48 39.6425 47.747 40.0925 47.2965C40.5426 46.8461 40.7954 46.2352 40.7954 45.5983V28.7861H45.5949C46.0596 28.7881 46.5149 28.6547 46.9052 28.4021C47.2955 28.1496 47.604 27.7889 47.793 27.364C47.982 26.939 48.0434 26.4682 47.9697 26.009C47.896 25.5497 47.6903 25.1219 47.3779 24.7776V24.7776Z" fill="white"/>
</svg>
