<?xml version="1.0" standalone="no"?>
<!DOCTYPE svg PUBLIC "-//W3C//DTD SVG 20010904//EN"
 "http://www.w3.org/TR/2001/REC-SVG-20010904/DTD/svg10.dtd">
<svg version="1.0" xmlns="http://www.w3.org/2000/svg"
 width="1280.000000pt" height="1228.000000pt" viewBox="0 0 1280.000000 1228.000000"
 preserveAspectRatio="xMidYMid meet">
<metadata>
Created by potrace 1.15, written by Peter Selinger 2001-2017
</metadata>
<g transform="translate(0.000000,1228.000000) scale(0.100000,-0.100000)"
fill="#ffffff" stroke="none">
<path d="M10310 12228 c-179 -164 -475 -378 -710 -513 -459 -266 -1075 -491
-1790 -655 -264 -60 -260 -59 -255 -73 4 -10 142 -519 546 -2017 28 -102 75
-275 104 -385 30 -110 180 -666 334 -1235 154 -569 279 -1036 277 -1037 -1 -2
-573 1281 -1271 2849 -697 1569 -1271 2856 -1275 2861 -12 14 -704 20 -935 8
-1527 -79 -2805 -513 -3881 -1319 -186 -138 -424 -338 -424 -354 0 -7 85 -228
189 -492 104 -265 312 -791 461 -1171 150 -379 379 -962 510 -1295 131 -333
351 -891 488 -1240 138 -349 314 -797 392 -995 78 -198 315 -801 527 -1340
212 -539 411 -1044 442 -1123 l57 -142 81 102 c272 347 726 801 1178 1179
1317 1101 2988 1998 3557 1909 120 -18 179 -54 220 -134 29 -57 22 -202 -15
-304 -81 -226 -310 -571 -567 -857 -106 -117 -210 -227 -210 -221 0 3 26 47
58 98 224 357 326 626 292 769 -22 92 -94 139 -214 139 -308 0 -924 -335
-1333 -724 l-106 -101 23 -45 c77 -152 213 -305 350 -395 362 -236 899 -283
1605 -140 1144 231 2581 991 3375 1785 140 139 280 309 358 434 l53 83 -200
504 c-211 534 -463 1171 -811 2049 -117 294 -301 760 -410 1035 -109 275 -293
741 -410 1035 -117 294 -297 751 -402 1015 -104 263 -192 484 -196 491 -5 8
-26 -5 -62 -38z"/>
<path d="M285 10362 c-154 -69 -281 -126 -282 -127 -3 -2 22 -74 732 -2100
229 -654 618 -1766 865 -2470 247 -704 636 -1815 865 -2470 229 -654 574
-1640 767 -2190 192 -550 351 -1001 352 -1002 3 -3 947 374 953 381 3 3 -47
137 -110 298 -171 435 -943 2400 -2149 5473 -171 435 -467 1188 -658 1675
-191 487 -504 1284 -696 1773 -191 488 -351 886 -354 886 -3 -1 -131 -58 -285
-127z"/>
</g>
</svg>
