<svg width="145" height="51" viewBox="0 0 145 51" fill="none" xmlns="http://www.w3.org/2000/svg">
<path d="M15.2344 14.9375H18.3984L22.5 27.1367L26.5898 14.9375H29.7539L23.7773 32H21.2109L15.2344 14.9375ZM13.4062 14.9375H16.6289L17.2266 27.582V32H13.4062V14.9375ZM28.3594 14.9375H31.5938V32H27.7617V27.582L28.3594 14.9375ZM40.2188 32.2344C39.2109 32.2344 38.3086 32.0742 37.5117 31.7539C36.7148 31.4336 36.0391 30.9922 35.4844 30.4297C34.9375 29.8594 34.5195 29.2031 34.2305 28.4609C33.9414 27.7188 33.7969 26.9258 33.7969 26.082V25.6367C33.7969 24.6914 33.9297 23.8203 34.1953 23.0234C34.4609 22.2266 34.8477 21.5352 35.3555 20.9492C35.8711 20.3555 36.5039 19.8984 37.2539 19.5781C38.0039 19.25 38.8594 19.0859 39.8203 19.0859C40.7188 19.0859 41.5195 19.2344 42.2227 19.5312C42.9258 19.8203 43.5195 20.2383 44.0039 20.7852C44.4883 21.3242 44.8555 21.9766 45.1055 22.7422C45.3633 23.5 45.4922 24.3516 45.4922 25.2969V26.7969H35.2734V24.4414H41.9062V24.1602C41.9062 23.7148 41.8242 23.3242 41.6602 22.9883C41.5039 22.6523 41.2695 22.3945 40.957 22.2148C40.6523 22.0273 40.2656 21.9336 39.7969 21.9336C39.3516 21.9336 38.9805 22.0273 38.6836 22.2148C38.3867 22.4023 38.1484 22.668 37.9688 23.0117C37.7969 23.3477 37.6719 23.7422 37.5938 24.1953C37.5156 24.6406 37.4766 25.1211 37.4766 25.6367V26.082C37.4766 26.5742 37.543 27.0234 37.6758 27.4297C37.8086 27.8359 38.0039 28.1836 38.2617 28.4727C38.5195 28.7617 38.832 28.9883 39.1992 29.1523C39.5664 29.3164 39.9844 29.3984 40.4531 29.3984C41.0312 29.3984 41.582 29.2891 42.1055 29.0703C42.6289 28.8438 43.082 28.4922 43.4648 28.0156L45.1758 29.9727C44.918 30.3477 44.5547 30.7109 44.0859 31.0625C43.625 31.4062 43.0703 31.6875 42.4219 31.9062C41.7734 32.125 41.0391 32.2344 40.2188 32.2344ZM53.7188 19.3203V21.8867H46.1953V19.3203H53.7188ZM47.918 16.1797H51.5859V28.0273C51.5859 28.3789 51.6289 28.6484 51.7148 28.8359C51.8008 29.0234 51.9414 29.1562 52.1367 29.2344C52.332 29.3047 52.582 29.3398 52.8867 29.3398C53.1055 29.3398 53.293 29.332 53.4492 29.3164C53.6055 29.3008 53.75 29.2812 53.8828 29.2578V31.9062C53.5703 32.0078 53.2383 32.0859 52.8867 32.1406C52.5352 32.2031 52.1523 32.2344 51.7383 32.2344C50.9492 32.2344 50.2656 32.1055 49.6875 31.8477C49.1172 31.5898 48.6797 31.1836 48.375 30.6289C48.0703 30.0664 47.918 29.3359 47.918 28.4375V16.1797ZM62.1914 28.9766V23.5391C62.1914 23.1562 62.1328 22.8281 62.0156 22.5547C61.8984 22.2812 61.7148 22.0664 61.4648 21.9102C61.2148 21.7539 60.8906 21.6758 60.4922 21.6758C60.1562 21.6758 59.8633 21.7344 59.6133 21.8516C59.3711 21.9688 59.1836 22.1367 59.0508 22.3555C58.9258 22.5742 58.8633 22.8438 58.8633 23.1641H55.207C55.207 22.5938 55.3359 22.0625 55.5938 21.5703C55.8516 21.0781 56.2188 20.6445 56.6953 20.2695C57.1797 19.8945 57.7578 19.6055 58.4297 19.4023C59.1016 19.1914 59.8555 19.0859 60.6914 19.0859C61.6836 19.0859 62.5664 19.2539 63.3398 19.5898C64.1211 19.918 64.7383 20.4141 65.1914 21.0781C65.6445 21.7344 65.8711 22.5625 65.8711 23.5625V28.8711C65.8711 29.6367 65.9141 30.2383 66 30.6758C66.0938 31.1055 66.2266 31.4805 66.3984 31.8008V32H62.707C62.5352 31.6328 62.4062 31.1797 62.3203 30.6406C62.2344 30.0938 62.1914 29.5391 62.1914 28.9766ZM62.6484 24.2656L62.6719 26.2812H60.8555C60.4492 26.2812 60.0977 26.332 59.8008 26.4336C59.5117 26.5352 59.2773 26.6758 59.0977 26.8555C58.918 27.0273 58.7852 27.2305 58.6992 27.4648C58.6211 27.6914 58.582 27.9414 58.582 28.2148C58.582 28.4727 58.6445 28.707 58.7695 28.918C58.8945 29.1211 59.0664 29.2812 59.2852 29.3984C59.5039 29.5156 59.7578 29.5742 60.0469 29.5742C60.5234 29.5742 60.9297 29.4805 61.2656 29.293C61.6094 29.1055 61.875 28.8789 62.0625 28.6133C62.25 28.3398 62.3438 28.0859 62.3438 27.8516L63.2227 29.375C63.082 29.6875 62.9102 30.0117 62.707 30.3477C62.5039 30.6758 62.2461 30.9844 61.9336 31.2734C61.6211 31.5547 61.2422 31.7852 60.7969 31.9648C60.3594 32.1445 59.832 32.2344 59.2148 32.2344C58.418 32.2344 57.6953 32.0742 57.0469 31.7539C56.3984 31.4258 55.8789 30.9766 55.4883 30.4062C55.1055 29.8359 54.9141 29.1797 54.9141 28.4375C54.9141 27.7734 55.0352 27.1836 55.2773 26.668C55.5195 26.1523 55.8828 25.7148 56.3672 25.3555C56.8594 24.9961 57.4766 24.7266 58.2188 24.5469C58.9609 24.3594 59.8281 24.2656 60.8203 24.2656H62.6484ZM76.4062 14.9375V32H72.5977V14.9375H76.4062ZM81.5977 14.9375V17.9023H67.5117V14.9375H81.5977ZM89.918 28.9414V19.3203H93.5977V32H90.1523L89.918 28.9414ZM90.3047 26.3516L91.3125 26.3281C91.3125 27.1797 91.2109 27.9648 91.0078 28.6836C90.8125 29.4023 90.5156 30.0273 90.1172 30.5586C89.7266 31.0898 89.2383 31.5039 88.6523 31.8008C88.0742 32.0898 87.3984 32.2344 86.625 32.2344C86 32.2344 85.4258 32.1484 84.9023 31.9766C84.3867 31.7969 83.9414 31.5195 83.5664 31.1445C83.1914 30.7617 82.9023 30.2734 82.6992 29.6797C82.4961 29.0781 82.3945 28.3594 82.3945 27.5234V19.3203H86.0508V27.5469C86.0508 27.875 86.0898 28.1562 86.168 28.3906C86.2539 28.6172 86.3672 28.8047 86.5078 28.9531C86.6562 29.1016 86.8359 29.2109 87.0469 29.2812C87.2656 29.3516 87.5039 29.3867 87.7617 29.3867C88.4102 29.3867 88.918 29.2539 89.2852 28.9883C89.6602 28.7148 89.9219 28.3516 90.0703 27.8984C90.2266 27.4375 90.3047 26.9219 90.3047 26.3516ZM95.9883 14H99.6445V28.9883L99.2695 32H95.9883V14ZM107.555 25.5195V25.7656C107.555 26.7266 107.453 27.6016 107.25 28.3906C107.055 29.1797 106.754 29.8633 106.348 30.4414C105.941 31.0117 105.43 31.4531 104.812 31.7656C104.195 32.0781 103.469 32.2344 102.633 32.2344C101.859 32.2344 101.195 32.0742 100.641 31.7539C100.086 31.4258 99.6211 30.9727 99.2461 30.3945C98.8711 29.8164 98.5664 29.1406 98.332 28.3672C98.1055 27.5938 97.9297 26.7617 97.8047 25.8711V25.4492C97.9297 24.5586 98.1055 23.7266 98.332 22.9531C98.5664 22.1797 98.8711 21.5039 99.2461 20.9258C99.6211 20.3477 100.082 19.8984 100.629 19.5781C101.184 19.25 101.844 19.0859 102.609 19.0859C103.453 19.0859 104.184 19.2461 104.801 19.5664C105.426 19.8867 105.941 20.3359 106.348 20.9141C106.754 21.4844 107.055 22.1641 107.25 22.9531C107.453 23.7344 107.555 24.5898 107.555 25.5195ZM103.898 25.7656V25.5195C103.898 25.0352 103.863 24.5781 103.793 24.1484C103.73 23.7188 103.617 23.3398 103.453 23.0117C103.297 22.6758 103.074 22.4141 102.785 22.2266C102.504 22.0312 102.141 21.9336 101.695 21.9336C101.258 21.9336 100.887 22.0078 100.582 22.1562C100.277 22.3047 100.031 22.5156 99.8438 22.7891C99.6562 23.0547 99.5195 23.3789 99.4336 23.7617C99.3477 24.1445 99.3008 24.5703 99.293 25.0391V26.2812C99.3008 26.9062 99.3828 27.4531 99.5391 27.9219C99.6953 28.3906 99.9492 28.7539 100.301 29.0117C100.652 29.2617 101.125 29.3867 101.719 29.3867C102.172 29.3867 102.539 29.3008 102.82 29.1289C103.109 28.9492 103.328 28.6992 103.477 28.3789C103.633 28.0586 103.742 27.6758 103.805 27.2305C103.867 26.7852 103.898 26.2969 103.898 25.7656ZM115.477 32.2344C114.469 32.2344 113.566 32.0742 112.77 31.7539C111.973 31.4336 111.297 30.9922 110.742 30.4297C110.195 29.8594 109.777 29.2031 109.488 28.4609C109.199 27.7188 109.055 26.9258 109.055 26.082V25.6367C109.055 24.6914 109.188 23.8203 109.453 23.0234C109.719 22.2266 110.105 21.5352 110.613 20.9492C111.129 20.3555 111.762 19.8984 112.512 19.5781C113.262 19.25 114.117 19.0859 115.078 19.0859C115.977 19.0859 116.777 19.2344 117.48 19.5312C118.184 19.8203 118.777 20.2383 119.262 20.7852C119.746 21.3242 120.113 21.9766 120.363 22.7422C120.621 23.5 120.75 24.3516 120.75 25.2969V26.7969H110.531V24.4414H117.164V24.1602C117.164 23.7148 117.082 23.3242 116.918 22.9883C116.762 22.6523 116.527 22.3945 116.215 22.2148C115.91 22.0273 115.523 21.9336 115.055 21.9336C114.609 21.9336 114.238 22.0273 113.941 22.2148C113.645 22.4023 113.406 22.668 113.227 23.0117C113.055 23.3477 112.93 23.7422 112.852 24.1953C112.773 24.6406 112.734 25.1211 112.734 25.6367V26.082C112.734 26.5742 112.801 27.0234 112.934 27.4297C113.066 27.8359 113.262 28.1836 113.52 28.4727C113.777 28.7617 114.09 28.9883 114.457 29.1523C114.824 29.3164 115.242 29.3984 115.711 29.3984C116.289 29.3984 116.84 29.2891 117.363 29.0703C117.887 28.8438 118.34 28.4922 118.723 28.0156L120.434 29.9727C120.176 30.3477 119.812 30.7109 119.344 31.0625C118.883 31.4062 118.328 31.6875 117.68 31.9062C117.031 32.125 116.297 32.2344 115.477 32.2344Z" fill="white"/>
<line x1="11" y1="37.5" x2="120" y2="37.5" stroke="url(#paint0_linear_0_1)" stroke-width="3"/>
<defs>
<linearGradient id="paint0_linear_0_1" x1="-3.29508" y1="33.4997" x2="102.578" y2="33.4997" gradientUnits="userSpaceOnUse">
<stop offset="0.0989583" stop-color="#0F0000" stop-opacity="0"/>
<stop offset="1" stop-color="#FF0505"/>
</linearGradient>
</defs>
</svg>
